<svg xmlns="http://www.w3.org/2000/svg" width="24" height="24" fill="none"><g clip-path="url(#a)"><path fill="#1A1A1A" d="M21.499 16.428c.27-.399.41-.825.41-1.268 0-1.024-.745-1.954-2.118-2.669.554-.509.847-1.09.847-1.71 0-1.084-.894-2.05-2.519-2.717-1.015-.417-2.26-.7-3.612-.83.026-.053.052-.106.077-.161 1.465-3.252-.458-6.517-.54-6.655L13.792 0l-.48.089c-.157.03-3.877.753-5.342 4.004a6.066 6.066 0 0 0-.203.513 6.065 6.065 0 0 0-.49-.255c-3.235-1.498-6.52.39-6.659.472l-.42.247.083.48c.028.158.713 3.885 3.949 5.384.28.13.56.233.836.314.11.445.378.864.79 1.243-1.373.715-2.118 1.645-2.118 2.669 0 .443.14.87.41 1.268-1.495.801-2.303 1.815-2.303 2.922 0 1.366 1.229 2.59 3.46 3.447 2.02.776 4.69 1.203 7.519 1.203 2.829 0 5.499-.427 7.518-1.203 2.232-.857 3.46-2.081 3.46-3.447 0-1.107-.808-2.12-2.303-2.922Zm-2.267-5.647c0 .905-2.496 2.22-6.408 2.22-3.912 0-6.408-1.315-6.408-2.22 0-.905 2.496-2.22 6.408-2.22 3.911 0 6.408 1.315 6.408 2.22Zm-9.98-6.11c.877-1.946 2.882-2.776 3.82-3.067.404.892 1.111 2.934.23 4.89-.108.24-.233.46-.37.662h-.108c-.506 0-1.004.02-1.49.06L12.41 4.86l-1.28-.585-1.446 3.166c-.248.047-.49.1-.724.16-.174-.852-.18-1.882.292-2.93ZM1.795 5.807c.896-.395 2.945-1.081 4.893-.18.285.132.541.288.773.459-.044.58-.002 1.13.089 1.633L5.008 6.56l-.585 1.279 1.897.866c-.49.338-.85.718-1.067 1.127a4.51 4.51 0 0 1-.432-.174c-1.937-.896-2.746-2.91-3.027-3.85Zm5.482 7.583c.082.037.166.073.252.108 1.426.587 3.307.91 5.296.91 1.989 0 3.87-.323 5.296-.91.085-.035.169-.071.25-.108 1.374.529 2.133 1.206 2.133 1.77 0 1.106-2.921 2.65-7.68 2.65-4.757 0-7.679-1.544-7.679-2.65 0-.564.759-1.242 2.132-1.77Zm12.562 8.094c-1.863.716-4.354 1.11-7.014 1.11-2.661 0-5.152-.394-7.014-1.11-1.602-.615-2.559-1.413-2.559-2.134 0-.629.73-1.317 1.98-1.89a7.53 7.53 0 0 0 1.404.724c1.664.666 3.862 1.032 6.189 1.032 2.326 0 4.524-.366 6.188-1.032a7.534 7.534 0 0 0 1.404-.725c1.251.574 1.98 1.262 1.98 1.891 0 .721-.956 1.52-2.558 2.134Z"/></g><defs><clipPath id="a"><path fill="#fff" d="M0 0h24v24H0z"/></clipPath></defs></svg>