<svg xmlns="http://www.w3.org/2000/svg" width="24" height="24" fill="none"><path fill="#1A1A1A" d="M11.415 7.05c-.352.367-3.42 3.698-3.42 6.15A3.832 3.832 0 0 0 12 17.198a3.833 3.833 0 0 0 3.998-3.998c0-2.452-3.068-5.775-3.42-6.15a.825.825 0 0 0-1.163 0Zm3 6.15A2.248 2.248 0 0 1 12 15.6a2.251 2.251 0 0 1-2.4-2.4c0-1.155 1.298-3.082 2.4-4.395 1.102 1.305 2.4 3.232 2.4 4.395h.015Z"/><path fill="#1A1A1A" d="M3.06 12.428A.915.915 0 0 0 3.203 12a8.798 8.798 0 0 1 16.8-3.667.802.802 0 1 0 1.454-.668A10.395 10.395 0 0 0 1.852 9.75l-.352-.6a.817.817 0 1 0-1.365.9l1.597 2.377a.75.75 0 0 0 1.328 0Zm20.805 1.529-1.598-2.4a.81.81 0 0 0-1.5.443 8.797 8.797 0 0 1-16.8 3.668.803.803 0 1 0-1.454.667 10.395 10.395 0 0 0 19.635-2.085l.39.585a.802.802 0 0 0 1.327-.885v.008Z"/></svg>