<svg xmlns="http://www.w3.org/2000/svg" width="24" height="24" fill="none"><path fill="#1A1A1A" d="M22.44 1.88a.712.712 0 0 0-.54-.187l-8.053.667A12.16 12.16 0 0 0 2.753 14.413v2.574a10.76 10.76 0 0 0-1.42 5.333h1.42A9.333 9.333 0 0 1 3.9 17.86l4.213.88a12.153 12.153 0 0 0 10.094-2.453 12.042 12.042 0 0 0 4.46-9.394V2.4a.713.713 0 0 0-.227-.52ZM21.247 6.9A10.666 10.666 0 0 1 8.4 17.333l-3.667-.766a9.287 9.287 0 0 1 2.554-2.274l9.333-5.606-.733-1.22-9.334 5.606a10.667 10.667 0 0 0-2.38 1.954V14.4A10.727 10.727 0 0 1 13.96 3.78l7.287-.607V6.9Z"/></svg>