<svg xmlns="http://www.w3.org/2000/svg" width="50" height="50" fill="none"><path fill="#fff" d="M25 .5C38.531.5 49.5 11.469 49.5 25S38.531 49.5 25 49.5.5 38.531.5 25 11.469.5 25 .5Z"/><path stroke="#E7E9EB" d="M25 .5C38.531.5 49.5 11.469 49.5 25S38.531 49.5 25 49.5.5 38.531.5 25 11.469.5 25 .5Z"/><g clip-path="url(#a)"><path fill="#1A1A1A" d="M32.009 24.004c-1.909 0-4.564.091-7.136.183-2.572 0-5.145.091-7.136.091h-1.66c.084 0 .084-.091.166-.091.913-.458 1.992-1.28 2.988-2.287.249-.274.497-.549.663-.823.25-.275.415-.55.581-.824l.498-.823c.166-.274.249-.549.415-.823.083-.274.249-.457.249-.732.083-.183.166-.366.166-.549.083-.274.166-.457.166-.457s-.332 0-.581-.091c-.249-.092-.58-.275-.58-.275s0 .183-.084.457c0 .183-.083.275-.083.55 0 .182-.166.457-.166.64-.083.274-.166.457-.249.731-.083.275-.249.55-.415.824l-.497.823c-.166.274-.332.549-.581.823-.83 1.006-1.826 1.83-2.738 2.287-.415.274-1.08.549-1.08.549l-.912.457.996.366s.58.274.996.549c.83.457 1.825 1.28 2.738 2.287.249.274.415.549.58.823.167.274.332.549.498.823.166.275.25.549.415.823.166.275.166.55.25.732.082.275.165.457.165.64.083.183.083.366.083.55.083.274.083.457.083.457s.332-.183.581-.275c.249-.091.58-.091.58-.091s-.082-.183-.165-.458c-.083-.183-.083-.366-.166-.548-.083-.183-.166-.458-.249-.732-.083-.275-.249-.549-.415-.823-.166-.275-.249-.55-.498-.824-.166-.274-.332-.549-.58-.823-.25-.274-.415-.549-.664-.823-.913-1.006-2.075-1.83-2.988-2.287-.082 0-.082-.091-.165-.091h1.66c1.907 0 4.563.091 7.135.091 2.572.091 5.144.091 7.136.183 1.908.091 3.236.091 3.236.091s-.083-.365-.083-.64c0-.274.083-.64.083-.64s-1.245-.092-3.236 0Z"/></g><defs><clipPath id="a"><path fill="#fff" d="M36 16.5H14v17h22z"/></clipPath></defs></svg>