<svg xmlns="http://www.w3.org/2000/svg" width="24" height="24" fill="none"><g fill="#1A1A1A" clip-path="url(#a)"><path d="M10.588 11.3H9.177c-.03.933-1.383.933-1.412 0H6.353c.09 2.8 4.147 2.798 4.235 0Zm7.059 0h-1.412c-.03.933-1.382.933-1.412 0h-1.411c.09 2.8 4.147 2.798 4.235 0ZM12 18.689a1.413 1.413 0 0 1-1.412-1.412H9.176c.12 3.732 5.53 3.73 5.647 0h-1.411c0 .778-.634 1.412-1.412 1.412Zm-.706-5.271h1.412v2.118h-1.412v-2.118Z"/><path d="M12 .006c-6.641 0-12 5.385-12 12v2.118a8.472 8.472 0 0 0 7.167 8.37c2.756 2.013 6.936 1.984 9.655.002A8.472 8.472 0 0 0 24 14.124v-2.118c0-6.632-5.366-12-12-12ZM1.412 14.124v-2.118a10.63 10.63 0 0 1 4.59-8.727 6.624 6.624 0 0 0 1.93 2.552c-.29.155-.597.282-.916.378a4.905 4.905 0 0 0-3.487 4.697v4.63a8.41 8.41 0 0 0 1.427 4.71 7.083 7.083 0 0 1-3.544-6.122Zm3.53 1.412v-4.63c0-1.552.997-2.896 2.482-3.345a6.405 6.405 0 0 0 1.83-.889 6.82 6.82 0 0 0 2.013.615l4.791.684c1.71.244 3 1.732 3 3.46v4.105c-.294 9.327-13.832 9.33-14.117 0Zm17.646-1.412c0 2.59-1.419 4.9-3.555 6.128a8.423 8.423 0 0 0 1.438-4.716V11.43a4.908 4.908 0 0 0-4.213-4.858l-4.791-.684C9.618 5.624 7.943 4.401 7.229 2.55c6.795-3.602 15.542 1.728 15.36 9.455v2.118Z"/></g><defs><clipPath id="a"><path fill="#fff" d="M0 0h24v24H0z"/></clipPath></defs></svg>